<?xml version="1.0" encoding="UTF-8" standalone="no"?>
<svg
   xmlns:dc="http://purl.org/dc/elements/1.1/"
   xmlns:cc="http://creativecommons.org/ns#"
   xmlns:rdf="http://www.w3.org/1999/02/22-rdf-syntax-ns#"
   xmlns:svg="http://www.w3.org/2000/svg"
   xmlns="http://www.w3.org/2000/svg"
   xmlns:sodipodi="http://sodipodi.sourceforge.net/DTD/sodipodi-0.dtd"
   xmlns:inkscape="http://www.inkscape.org/namespaces/inkscape"
   version="1.1"
   viewBox="0 0 338.32546 338.32546"
   width="338.32546"
   height="338.32546"
   id="svg122"
   sodipodi:docname="cuetsy.svg"
   inkscape:version="1.0.2 (e86c870879, 2021-01-15)">
  <sodipodi:namedview
     pagecolor="#ffffff"
     bordercolor="#666666"
     borderopacity="1"
     objecttolerance="10"
     gridtolerance="10"
     guidetolerance="10"
     inkscape:pageopacity="0"
     inkscape:pageshadow="2"
     inkscape:window-width="1916"
     inkscape:window-height="1152"
     id="namedview124"
     showgrid="false"
     inkscape:zoom="1.6302151"
     inkscape:cx="104.34993"
     inkscape:cy="182.78556"
     inkscape:window-x="1920"
     inkscape:window-y="46"
     inkscape:window-maximized="1"
     inkscape:current-layer="svg122" />
  <defs
     id="defs86" />
  <metadata
     id="metadata88"> Produced by OmniGraffle 7.10.1 
    <dc:date>2019-08-10 23:02:54 +0000</dc:date>
<rdf:RDF>
  <cc:Work
     rdf:about="">
    <dc:format>image/svg+xml</dc:format>
    <dc:type
       rdf:resource="http://purl.org/dc/dcmitype/StillImage" />
  </cc:Work>
</rdf:RDF>
</metadata>
  <g
     id="Canvas_1"
     fill="none"
     stroke-opacity="1"
     fill-opacity="1"
     stroke="none"
     stroke-dasharray="none">
    <title
       id="title90">Canvas 1</title>
    <g
       id="Canvas_1: Layer 1">
      <title
         id="title92">Layer 1</title>
      <g
         id="Graphic_13">
        <circle
           cx="169.16274"
           cy="169.16274"
           r="177.16301808867"
           fill="white"
           id="circle94" />
      </g>
      <g
         id="Graphic_2" />
      <g
         id="Group_3">
        <g
           id="Graphic_10">
          <rect
             x="-8"
             y="-8"
             width="354.32547"
             height="354.32547"
             fill="black"
             fill-opacity="0"
             id="rect98" />
        </g>
        <g
           id="Graphic_9">
          <path
             d="M 13.191601 168.6903 C 13.191601 82.812185 82.80957 13.19423 168.68766 13.19423 C 209.92777 13.19423 249.4788 29.576804 278.63998 58.73797 C 307.80114 87.89914 324.1837 127.45018 324.1837 168.6903 C 324.1837 254.5684 254.56576 324.18635 168.68766 324.18635 C 82.80956 324.18635 13.191601 254.5684 13.191601 168.6903 Z"
             fill="black"
             fill-opacity="0"
             id="path101" />
        </g>
        <g
           id="Graphic_8">
          <path
             d="m 13.666685,169.16274 c 0,-85.87811 69.617969,-155.496065 155.496055,-155.496065 41.24011,0 80.79114,16.382574 109.95232,45.54374 29.16116,29.16117 45.54372,68.712205 45.54372,109.952325 0,85.8781 -69.61794,155.49605 -155.49604,155.49605 -85.878096,0 -155.496055,-69.61795 -155.496055,-155.49605 z"
             stroke="#4a86e8"
             stroke-linecap="butt"
             stroke-linejoin="round"
             stroke-width="24"
             id="path104" />
        </g>
        <g
           id="Graphic_7">
          <path
             d="M 19.790026 168.6903 C 19.790026 86.45639 86.45377 19.79265 168.68767 19.79265 C 208.17778 19.79265 246.05048 35.480034 273.97418 63.40376 C 301.8979 91.32748 317.5853 129.20018 317.5853 168.69029 C 317.5853 250.92418 250.92156 317.5879 168.68766 317.5879 C 86.45376 317.5879 19.790025 250.92418 19.790025 168.69029 Z"
             fill="black"
             fill-opacity="0"
             id="path107" />
        </g>
        <g
           id="Graphic_6"
           transform="translate(0.47507249)">
          <path
             d="m 19.790026,168.6903 c 0,-82.23391 66.663744,-148.89765 148.897644,-148.89765 39.49011,0 77.36281,15.687384 105.28651,43.61111 27.92372,27.92372 43.61112,65.79642 43.61112,105.28653 0,82.23389 -66.66374,148.89761 -148.89764,148.89761 -82.2339,0 -148.897635,-66.66372 -148.897635,-148.89761 z"
             stroke="#ffffff"
             stroke-linecap="butt"
             stroke-linejoin="round"
             stroke-width="3"
             id="path110" />
        </g>
        <g
           id="Graphic_5">
          <rect
             x="73.50656"
             y="109.33858"
             width="181.88977"
             height="112.40945"
             fill="black"
             fill-opacity="0"
             id="rect113" />
        </g>
        <g
           id="Graphic_4"
           transform="translate(4.101915)">
          <path
             d="m 115.1741,68.81046 c 5.78125,0 10.84375,1.65104 15.1875,4.95312 4.35417,3.29167 6.94792,7.80209 7.78125,13.53125 h -5.42187 c -1.07292,-4.40625 -3.20313,-7.8125 -6.39063,-10.21875 -3.1875,-2.40625 -6.91667,-3.60937 -11.1875,-3.60937 -6.61458,0 -11.84896,2.34896 -15.70312,7.04687 -3.85417,4.69792 -5.78125,10.71876 -5.78125,18.0625 0,7.21876 1.90104,13.21355 5.70312,17.98438 3.80208,4.76042 9.0625,7.14062 15.78125,7.14062 4.94792,0 9.08854,-1.67188 12.42188,-5.01562 3.33333,-3.35416 5.3125,-7.77604 5.9375,-13.26563 h 5.42187 c -0.80208,7.15625 -3.32812,12.77084 -7.57812,16.84375 -4.23959,4.0625 -9.63021,6.09376 -16.17188,6.09376 -8.25,0 -14.80729,-2.80209 -19.67187,-8.40626 -4.85417,-5.60416 -7.28125,-12.72916 -7.28125,-21.375 0,-8.71874 2.45312,-15.85937 7.35937,-21.42187 4.91667,-5.5625 11.44792,-8.34375 19.59375,-8.34375 z m 36.95313,1.21875 v 35.73437 c 0,5.83334 1.35417,10.28126 4.0625,13.34376 2.70833,3.0625 6.92707,4.59374 12.65625,4.59374 5.76042,0 10,-1.51041 12.71874,-4.53125 2.71876,-3.02083 4.07813,-7.48958 4.07813,-13.40625 V 70.02921 h 5.46875 v 36.90625 c 0,6.30208 -1.89062,11.44792 -5.67187,15.4375 -3.77083,3.98958 -9.30209,5.98438 -16.59375,5.98438 -4.44792,0 -8.34896,-0.83334 -11.70313,-2.5 -3.34375,-1.67709 -5.92187,-4.19271 -7.73437,-7.54688 -1.80208,-3.36458 -2.70313,-7.15626 -2.70313,-11.375 V 70.02921 Z m 89.38281,0 v 4.64062 h -33.98438 v 20.625 h 31.82813 v 4.65625 h -31.82813 v 22.53126 h 34.375 v 4.65624 H 202.0569 V 70.02921 Z"
             fill="#4a86e8"
             id="path116" />
        </g>
      </g>
    </g>
  </g>
  <g
     style="fill:none"
     id="g243"
     transform="matrix(0.34747583,0,0,0.34747583,305.31525,373.53543)">
    <g
       id="g1070"
       transform="translate(-8.0107713,-18.734525)">
      <rect
         fill="#3178c6"
         height="379.88864"
         rx="37.098499"
         width="379.88864"
         id="rect226"
         x="-573.7666"
         y="-628.90875"
         style="fill:#4a86e8;fill-opacity:1;stroke-width:0.74197" />
      <path
         clip-rule="evenodd"
         d="m -338.60738,-326.61237 v 37.14376 c 6.03815,3.0955 13.17961,5.41638 21.42438,6.96413 8.24477,1.54775 16.93398,2.32163 26.06912,2.32163 8.9029,0 17.35987,-0.85104 25.37241,-2.55386 8.01253,-1.70208 15.03824,-4.50747 21.0764,-8.41543 6.03815,-3.90721 10.81866,-9.01493 14.34079,-15.32168 3.52213,-6.30674 5.28357,-14.10262 5.28357,-23.38838 0,-6.73263 -1.00611,-12.63278 -3.01907,-17.70117 -2.01297,-5.0684 -4.91556,-9.57587 -8.70925,-13.52241 -3.79295,-3.94654 -8.34123,-7.48722 -13.64409,-10.6213 -5.30286,-3.13408 -11.28313,-6.0938 -17.94083,-8.87915 -4.87697,-2.01223 -9.25088,-3.96583 -13.12174,-5.86157 -3.87086,-1.89647 -7.16075,-3.83079 -9.87043,-5.80369 -2.70967,-1.97364 -4.7998,-4.06302 -6.27039,-6.26816 -1.47058,-2.20588 -2.20661,-4.70112 -2.20661,-7.48722 0,-2.55312 0.65812,-4.85545 1.97438,-6.90626 1.31625,-2.0508 3.17415,-3.81075 5.57368,-5.28134 2.40027,-1.46984 5.34144,-2.61173 8.82499,-3.42419 3.48429,-0.81246 7.3544,-1.21831 11.61257,-1.21831 3.09624,0 6.36684,0.23223 9.81181,0.69596 3.44497,0.46448 6.90923,1.18048 10.39352,2.14726 3.48355,0.96753 6.8699,2.18659 10.16054,3.65643 3.28989,1.47059 6.32826,3.17267 9.1151,5.10772 v -34.70639 c -5.65085,-2.16655 -11.82478,-3.77217 -18.52106,-4.81686 -6.69628,-1.0447 -14.38012,-1.56705 -23.05004,-1.56705 -8.82573,0 -17.18625,0.94824 -25.0823,2.84398 -7.89604,1.89573 -14.84385,4.85545 -20.84416,8.87915 -5.99957,4.02445 -10.74076,9.15072 -14.22431,15.3803 -3.48355,6.22884 -5.22569,13.67673 -5.22569,22.34368 0,11.06574 3.19344,20.50657 9.58032,28.32248 6.38613,7.81517 16.0822,14.43132 29.08819,19.84844 5.1092,2.08939 9.87043,4.13945 14.28292,6.15168 4.4125,2.01222 8.22548,4.10161 11.43747,6.26816 3.21273,2.16655 5.74804,4.52676 7.60668,7.08062 1.85789,2.55312 2.78683,5.45496 2.78683,8.70553 0,2.39879 -0.58096,4.62322 -1.74214,6.67402 -1.16118,2.05081 -2.92262,3.83005 -5.28357,5.33922 -2.36095,1.50917 -5.30286,2.6889 -8.82499,3.53994 -3.52287,0.85178 -7.64452,1.27693 -12.36716,1.27693 -8.05111,0 -16.02432,-1.41197 -23.92111,-4.23665 -7.89605,-2.82394 -15.21187,-7.06059 -21.94673,-12.70995 z m -62.44346,-91.51606 h 47.64932 v -30.48162 h -132.81263 v 30.48162 h 47.41633 v 135.71967 h 37.74698 z"
         fill="#ffffff"
         fill-rule="evenodd"
         id="path230"
         style="stroke-width:0.74197" />
    </g>
  </g>
</svg>
